<svg width="15" height="15" viewBox="0 0 15 15" fill="none" xmlns="http://www.w3.org/2000/svg">
<path fill-rule="evenodd" clip-rule="evenodd" d="M4.04434 2.17531C4.3078 1.4508 4.99637 0.968506 5.7673 0.968506H9.23282C10.0038 0.968506 10.6923 1.4508 10.9558 2.17531L11.2442 2.96851H11.887C12.2431 2.9685 12.5403 2.96849 12.7832 2.98833C13.0364 3.00902 13.2742 3.05376 13.499 3.16833C13.844 3.3441 14.1245 3.62456 14.3002 3.96952C14.4148 4.19437 14.4595 4.43214 14.4802 4.68539C14.5001 4.92821 14.5001 5.22544 14.5001 5.58154V6.06732C14.5001 6.13108 14.5001 6.19309 14.5001 6.25346V11.6888C14.5001 12.0449 14.5001 12.3421 14.4802 12.585C14.4595 12.8382 14.4148 13.076 14.3002 13.3008C14.1245 13.6458 13.844 13.9262 13.499 14.102C13.2742 14.2166 13.0364 14.2613 12.7832 14.282C12.5404 14.3019 12.2431 14.3018 11.887 14.3018H3.11309C2.75699 14.3018 2.45977 14.3019 2.21695 14.282C1.96369 14.2613 1.72592 14.2166 1.50108 14.102C1.15611 13.9262 0.87565 13.6458 0.69988 13.3008C0.58532 13.076 0.54058 12.8382 0.51988 12.585C0.50005 12.3421 0.50005 12.0449 0.50006 11.6888V6.25312C0.499971 6.19285 0.5 6.13095 0.50003 6.06732L0.50006 5.58155C0.50005 5.22545 0.50005 4.92821 0.51988 4.68539C0.54058 4.43214 0.58532 4.19437 0.69988 3.96952C0.87565 3.62456 1.15611 3.3441 1.50108 3.16833C1.72592 3.05376 1.96369 3.00902 2.21695 2.98833C2.45977 2.96849 2.757 2.9685 3.1131 2.96851H3.75591L4.04434 2.17531ZM10.016 2.51705L10.1801 2.96851H4.81997L4.98413 2.51705C5.10389 2.18773 5.41687 1.96851 5.7673 1.96851H9.23282C9.5832 1.96851 9.8962 2.18773 10.016 2.51705ZM13.5001 5.96851V5.60184C13.5001 5.22022 13.4997 4.96408 13.4836 4.76682C13.4679 4.57541 13.44 4.48389 13.4092 4.42351C13.3293 4.26671 13.2019 4.13923 13.0451 4.05933C12.9847 4.02857 12.8932 4.00065 12.7017 3.98501C12.5045 3.96889 12.2483 3.96851 11.8667 3.96851H3.13339C2.75177 3.96851 2.49563 3.96889 2.29838 3.98501C2.10696 4.00065 2.01544 4.02857 1.95507 4.05933C1.79826 4.13923 1.67078 4.26671 1.59089 4.42351C1.56012 4.48389 1.5322 4.57541 1.51656 4.76682C1.50045 4.96408 1.50006 5.22022 1.50006 5.60184V5.96851C1.50006 6.83012 1.50822 7.12553 1.60088 7.36533C1.69784 7.61628 1.86051 7.83653 2.07185 8.003C2.27379 8.16209 2.55374 8.25676 3.37725 8.51015L6.70603 9.5344C7.07245 9.6471 7.19791 9.6838 7.32138 9.6986C7.44008 9.7129 7.56004 9.7129 7.67873 9.6986C7.8022 9.6838 7.92767 9.6471 8.29409 9.5344L11.6229 8.51015C12.4464 8.25676 12.7263 8.16209 12.9283 8.003C13.1396 7.83653 13.3023 7.61628 13.3992 7.36533C13.4919 7.12553 13.5001 6.83012 13.5001 5.96851ZM1.50006 8.82438V11.6685C1.50006 12.0501 1.50045 12.3063 1.51656 12.5035C1.5322 12.6949 1.56012 12.7865 1.59089 12.8468C1.67078 13.0036 1.79826 13.1311 1.95507 13.211C2.01544 13.2418 2.10696 13.2697 2.29838 13.2853C2.49563 13.3015 2.75177 13.3018 3.13339 13.3018H11.8667C12.2483 13.3018 12.5045 13.3015 12.7017 13.2853C12.8932 13.2697 12.9847 13.2418 13.0451 13.211C13.2019 13.1311 13.3293 13.0036 13.4092 12.8468C13.44 12.7865 13.4679 12.6949 13.4836 12.5035C13.4997 12.3063 13.5001 12.0501 13.5001 11.6685V8.82438C13.139 9.0905 12.6737 9.2334 12.0114 9.4369L8.5478 10.5026C8.23683 10.5984 8.02143 10.6647 7.79785 10.6915C7.60003 10.7152 7.40009 10.7152 7.20227 10.6915C6.9787 10.6647 6.76331 10.5984 6.45236 10.5026L2.98871 9.4369C2.32639 9.2334 1.86107 9.0905 1.50006 8.82438Z" fill="black"/>
</svg>
