<svg width="17" height="16" viewBox="0 0 17 16" fill="none" xmlns="http://www.w3.org/2000/svg">
<path fill-rule="evenodd" clip-rule="evenodd" d="M16.5 8.46851C16.5 12.8868 12.9183 16.4685 8.5 16.4685C4.08172 16.4685 0.5 12.8868 0.5 8.46851C0.5 4.05023 4.08172 0.468506 8.5 0.468506C12.9183 0.468506 16.5 4.05023 16.5 8.46851ZM6.25898 13.8153C6.45425 14.3881 6.68797 14.8951 6.96043 15.2987C4.84057 14.8229 3.08429 13.3855 2.17363 11.4685H5.71244C5.84246 12.3438 6.02827 13.1385 6.25898 13.8153ZM6.72409 11.4685C6.84448 12.2311 7.00876 12.9156 7.20549 13.4926C7.42153 14.1263 7.66755 14.6033 7.91618 14.9118C8.16839 15.2247 8.36885 15.3018 8.5 15.3018C8.63115 15.3018 8.83161 15.2247 9.08382 14.9118C9.33245 14.6033 9.57847 14.1263 9.79451 13.4926C9.99124 12.9156 10.1555 12.2311 10.2759 11.4685H6.72409ZM10.4035 10.4685H6.59648C6.53389 9.8364 6.5 9.16531 6.5 8.46851C6.5 7.7717 6.53389 7.10064 6.59648 6.46851H10.4035C10.4661 7.10064 10.5 7.7717 10.5 8.46851C10.5 9.16531 10.4661 9.8364 10.4035 10.4685ZM11.4082 10.4685H15.2101C15.3987 9.8348 15.5 9.16348 15.5 8.46851C15.5 7.77353 15.3987 7.10222 15.2101 6.46851H11.4082C11.4682 7.10761 11.5 7.77831 11.5 8.46851C11.5 9.1587 11.4682 9.8294 11.4082 10.4685ZM11.2876 11.4685H14.8264C13.9157 13.3855 12.1594 14.8229 10.0396 15.2987C10.312 14.8951 10.5458 14.3881 10.741 13.8153C10.9717 13.1385 11.1575 12.3438 11.2876 11.4685ZM11.2876 5.46851H14.8264C13.9157 3.55153 12.1594 2.11413 10.0396 1.63836C10.312 2.04189 10.5458 2.54892 10.741 3.12172C10.9717 3.79847 11.1575 4.59317 11.2876 5.46851ZM10.2759 5.46851C10.1555 4.70586 9.99124 4.02146 9.79451 3.44439C9.57847 2.81066 9.33245 2.33371 9.08382 2.02523C8.83161 1.71232 8.63115 1.63517 8.5 1.63517C8.36885 1.63517 8.16839 1.71232 7.91618 2.02523C7.66755 2.33371 7.42153 2.81066 7.20549 3.44439C7.00876 4.02146 6.84448 4.70586 6.72409 5.46851H10.2759ZM5.71244 5.46851C5.84246 4.59317 6.02827 3.79847 6.25898 3.12172C6.45425 2.54892 6.68797 2.04189 6.96043 1.63836C4.84057 2.11413 3.08429 3.55153 2.17363 5.46851H5.71244ZM1.78988 6.46851C1.60128 7.10222 1.5 7.77353 1.5 8.46851C1.5 9.16348 1.60128 9.8348 1.78988 10.4685H5.59185C5.53179 9.8294 5.5 9.1587 5.5 8.46851C5.5 7.77831 5.53179 7.10761 5.59185 6.46851H1.78988Z" fill="black"/>
</svg>
