<svg width="32" height="31" viewBox="0 0 32 31" fill="none" xmlns="http://www.w3.org/2000/svg">
<mask id="mask0_3002_295" style="mask-type:luminance" maskUnits="userSpaceOnUse" x="0" y="0" width="32" height="31">
<path d="M15.9162 30.7973C24.2711 30.7973 31.0442 24.0243 31.0442 15.6694C31.0442 7.3144 24.2711 0.541382 15.9162 0.541382C7.56122 0.541382 0.788208 7.3144 0.788208 15.6694C0.788208 24.0243 7.56122 30.7973 15.9162 30.7973Z" fill="white"/>
</mask>
<g mask="url(#mask0_3002_295)">
<path d="M22.0877 25.8513C22.0877 25.8513 22.0184 19.5141 25.7437 16.1933L16.0385 14.3037V25.0288L22.0877 25.8513Z" fill="#F5F6F7"/>
<mask id="mask1_3002_295" style="mask-type:luminance" maskUnits="userSpaceOnUse" x="16" y="14" width="10" height="12">
<path fill-rule="evenodd" clip-rule="evenodd" d="M22.0887 25.8514C22.0887 25.8514 22.0193 19.5141 25.7446 16.1933L16.0394 14.3047V25.0289L22.0887 25.8514Z" fill="white"/>
</mask>
<g mask="url(#mask1_3002_295)">
<path d="M20.593 16.0267C20.829 17.9009 21.192 18.7215 22.4749 19.361C23.7578 20.0015 21.3404 22.8725 21.3404 22.8725L25.9498 21.0522L25.2361 17.0842L20.593 16.0267Z" fill="#CFCFD0"/>
</g>
<path fill-rule="evenodd" clip-rule="evenodd" d="M22.0877 25.8513C22.0877 25.8513 22.0184 19.5141 25.7437 16.1933L16.0385 14.3037V25.0288L22.0877 25.8513Z" stroke="#111111" stroke-width="4.17418" stroke-linecap="round" stroke-linejoin="round"/>
<path d="M17.642 16.2164C14.9993 13.8067 14.1142 10.2885 15.6657 8.35748C17.2173 6.42742 20.617 6.81651 23.2598 9.2262C25.9026 11.6359 26.7867 15.1541 25.2351 17.0842C24.3279 18.2129 22.7879 18.5491 21.1381 18.1513" fill="#F5F6F7"/>
<path d="M17.615 16.2444C16.6404 15.394 15.8564 14.3461 15.3171 13.1702C14.7344 11.9759 14.5976 10.6122 14.9318 9.32545C15.136 8.67247 15.5299 8.09557 16.0635 7.66795C16.6067 7.249 17.2539 6.98703 17.9348 6.91095C19.2754 6.7973 20.6189 7.09779 21.7833 7.77197C22.9497 8.41436 23.9705 9.28886 24.7824 10.3435C25.6223 11.4048 26.1597 12.6732 26.3379 14.0148C26.4159 14.7025 26.3485 15.3988 26.1385 16.0576C25.9247 16.7279 25.5125 17.3173 24.9558 17.7478C23.8299 18.5144 22.3988 18.6801 21.1284 18.1889C21.1188 18.186 21.1101 18.1783 21.1053 18.1696C21.1015 18.16 21.1005 18.1494 21.1034 18.1398C21.1092 18.1215 21.1275 18.1109 21.1467 18.1138C22.3602 18.3796 23.6306 18.0926 24.611 17.3289C25.4566 16.489 25.8159 15.2765 25.5655 14.1111C25.0993 11.6812 23.6094 9.56912 21.4771 8.31515C20.434 7.66602 19.2176 7.35109 17.9916 7.41369C17.3945 7.46088 16.8214 7.6718 16.336 8.02237C15.8564 8.38546 15.4952 8.88242 15.2997 9.45066C14.9443 10.6497 15.0262 11.9364 15.5328 13.0796C16.0163 14.2556 16.7434 15.315 17.668 16.1876C17.6747 16.1943 17.6795 16.2039 17.6795 16.2145C17.6805 16.2251 17.6767 16.2348 17.669 16.2425C17.6545 16.2579 17.6314 16.2588 17.615 16.2444Z" fill="#111111"/>
<path d="M8.9934 16.0267C8.94428 17.5638 7.65948 18.7715 6.12236 18.7253C4.59488 18.7474 3.32456 17.5532 3.25233 16.0267C3.2504 15.2812 3.55859 14.5676 4.10275 14.0562C4.6469 13.5448 5.37788 13.2818 6.12236 13.329C7.65948 13.2828 8.94428 14.4896 8.9934 16.0267Z" fill="#111111"/>
<mask id="mask2_3002_295" style="mask-type:luminance" maskUnits="userSpaceOnUse" x="3" y="13" width="6" height="6">
<path fill-rule="evenodd" clip-rule="evenodd" d="M8.99437 16.0267C8.94525 17.5638 7.66045 18.7715 6.12334 18.7253C4.59585 18.7474 3.32554 17.5532 3.2533 16.0267C3.25138 15.2803 3.55957 14.5676 4.10372 14.0562C4.64788 13.5448 5.37886 13.2818 6.12334 13.329C7.66045 13.2828 8.94525 14.4896 8.99437 16.0267Z" fill="white"/>
</mask>
<g mask="url(#mask2_3002_295)">
<path d="M9.56063 13.329H7.66138V18.9649H9.56063V13.329Z" fill="#111111"/>
</g>
<path d="M18.5685 64.338C18.5685 64.338 23.9956 55.8511 24.56 47.9931C23.9956 48.9042 27.4773 48.3023 27.4773 48.3023C27.4773 48.3023 33.4042 45.2964 32.8292 36.4243C32.496 31.2842 30.3416 28.47 23.9013 24.5502L15.0522 25.3515C15.0522 25.3515 6.25139 45.1953 -1.50256 45.5969L18.5685 64.338Z" fill="white"/>
<path fill-rule="evenodd" clip-rule="evenodd" d="M18.5685 64.338C18.5685 64.338 23.9956 55.8511 24.56 47.9931C23.9956 48.9042 27.4773 48.3023 27.4773 48.3023C27.4773 48.3023 33.4042 45.2964 32.8292 36.4243C32.496 31.2842 30.3416 28.47 23.9013 24.5502L15.0522 25.3515C15.0522 25.3515 6.25139 45.1953 -1.50256 45.5969L18.5685 64.338Z" stroke="#111111" stroke-width="4.17418" stroke-linecap="round" stroke-linejoin="round"/>
<path d="M23.7423 72.3847H35.4749C36.0797 72.1583 35.969 68.931 28.3315 69.4568C27.9492 65.5437 27.7681 61.6143 27.7893 57.6819C27.8789 53.9297 27.7074 52.721 27.7874 51.2224C28.0185 46.9163 29.4266 26.2558 22.1542 26.8404C13.1819 27.5608 19.3005 50.4712 19.4796 52.5014C19.6578 54.5326 22.0396 68.7258 22.0396 68.7258C22.1291 69.7477 22.7773 72.3847 23.7423 72.3847Z" fill="#F5F6F7"/>
<path fill-rule="evenodd" clip-rule="evenodd" d="M23.7423 72.3847H35.4749C36.0797 72.1583 35.969 68.931 28.3315 69.4568C27.9492 65.5437 27.7681 61.6143 27.7893 57.6819C27.8789 53.9297 27.7074 52.721 27.7874 51.2224C28.0185 46.9163 29.4266 26.2558 22.1542 26.8404C13.1819 27.5608 19.3005 50.4712 19.4796 52.5014C19.6578 54.5326 22.0396 68.7258 22.0396 68.7258C22.1291 69.7477 22.7773 72.3847 23.7423 72.3847Z" stroke="#111111" stroke-width="4.17418" stroke-linecap="round" stroke-linejoin="round"/>
<path d="M13.9774 22.0509L15.0522 25.3515L23.9022 24.5502L23.1799 22.6798L13.9774 22.0509Z" fill="#111111"/>
<path d="M14.0459 43.2662C14.253 43.3596 17.9946 43.5629 22.0396 43.5783C26.4747 43.5956 27.9069 43.2421 29.9236 42.5468C29.9236 42.5468 32.107 25.5557 21.1786 26.278C12.7765 26.8337 14.0459 43.2662 14.0459 43.2662Z" fill="white"/>
<path fill-rule="evenodd" clip-rule="evenodd" d="M14.0459 43.2662C14.253 43.3596 17.9946 43.5629 22.0396 43.5783C26.4747 43.5956 27.9069 43.2421 29.9236 42.5468C29.9236 42.5468 32.107 25.5557 21.1786 26.278C12.7765 26.8337 14.0459 43.2662 14.0459 43.2662Z" stroke="#111111" stroke-width="4.17418" stroke-linecap="round" stroke-linejoin="round"/>
<path d="M18.2479 16.0267C17.2617 20.2306 19.8216 22.8724 15.8796 22.8724C11.9386 22.8724 8.48682 20.3664 8.48682 15.3727C8.49741 10.9463 11.85 7.24316 16.2533 6.79339C20.8916 6.19819 19.3853 11.1832 18.2479 16.0267Z" fill="#111111"/>
<path d="M19.5827 17.3818C19.1089 17.665 18.5647 17.8123 18.0128 17.8085C16.5672 17.8085 15.3951 16.8531 15.3951 15.6752C15.3951 14.4964 16.5672 13.5419 18.0128 13.5419C18.5021 13.539 18.9846 13.6536 19.4209 13.8761" fill="#F5F6F7"/>
<path d="M19.6029 17.4145C18.8267 17.9288 17.8665 18.082 16.9688 17.8364C15.9797 17.6033 15.2343 16.7895 15.0898 15.785C15.0445 15.2572 15.189 14.7313 15.4962 14.3018C15.7977 13.8838 16.2224 13.5698 16.7098 13.4032C17.6334 13.0632 18.6678 13.2299 19.4382 13.8424C19.4556 13.8568 19.4575 13.8819 19.4431 13.8983C19.4325 13.9098 19.417 13.9146 19.4026 13.9108C18.6013 13.7085 17.7538 13.7836 17.0006 14.1246C16.2253 14.323 15.6898 15.0318 15.712 15.8312C15.7332 16.6315 16.3052 17.3105 17.0902 17.4666C17.8934 17.7853 18.7939 17.743 19.5625 17.3491C19.574 17.3414 19.5895 17.3414 19.601 17.3471C19.6135 17.3539 19.6212 17.3674 19.6212 17.3808C19.6222 17.3943 19.6145 17.4078 19.6029 17.4145Z" fill="#111111"/>
<path d="M8.67072 11.8959C8.77377 11.7303 8.88838 11.5733 9.00299 11.4173C9.30059 11.0147 9.62033 10.6275 9.95934 10.2596C10.4303 9.74436 10.9398 9.26762 11.4859 8.83326C12.1061 8.33437 12.7832 7.90964 13.5036 7.56967C14.2702 7.20658 15.0946 6.97832 15.9393 6.89356C16.0433 6.88393 16.1473 6.87622 16.2523 6.87237C16.2956 6.87045 16.443 6.86949 16.4439 6.79629C16.4439 6.72599 16.2908 6.71347 16.2542 6.71539C15.347 6.75392 14.4542 6.94846 13.6134 7.29133C12.8467 7.60819 12.1234 8.02039 11.4589 8.51928C10.8704 8.95846 10.3195 9.44676 9.81294 9.97839C9.43251 10.3752 9.07424 10.7932 8.74197 11.2304C8.63891 11.3662 8.53877 11.5039 8.4415 11.6436C8.39141 11.7052 8.34712 11.7707 8.30956 11.8401L8.30377 11.8497C8.24887 11.9373 8.60908 11.9942 8.67072 11.8959Z" fill="#111111"/>
<path d="M22.558 10.1442C22.3828 9.92083 22.0597 9.88179 21.8363 10.057C21.613 10.2322 21.5739 10.5553 21.7491 10.7787L22.2849 11.4617C22.4601 11.6851 22.7832 11.7241 23.0066 11.5489C23.23 11.3737 23.269 11.0506 23.0938 10.8272L22.558 10.1442Z" fill="#111111"/>
<path d="M21.1343 8.42105C19.8707 9.32541 19.9959 10.0448 20.8232 9.53151C21.6496 9.01818 21.9606 7.83067 21.1343 8.42105Z" fill="#111111"/>
<path d="M23.542 9.98604C25.7783 9.77223 26.3668 11.7716 25.0416 12.2089L23.542 9.98604Z" fill="#F5F6F7"/>
<path d="M23.5382 9.94758C23.8878 9.85994 24.2499 9.8349 24.6072 9.8715C24.9983 9.92832 25.3642 10.0988 25.6589 10.3608C26.0336 10.6478 26.206 11.1274 26.0991 11.5868C25.9748 12.0452 25.5212 12.3322 25.0541 12.2465C25.0425 12.2436 25.032 12.2359 25.0262 12.2253C25.0194 12.2147 25.0175 12.2022 25.0204 12.1907C25.0223 12.1839 25.0252 12.1781 25.03 12.1724C25.2236 11.973 25.3334 11.7062 25.3373 11.4279C25.3556 11.2006 25.3055 10.9733 25.1937 10.7749C25.0223 10.5351 24.7825 10.3521 24.5061 10.2471C24.2018 10.1181 23.8762 10.0429 23.5459 10.0256L23.542 10.0246C23.5218 10.0227 23.5074 10.0073 23.5064 9.98803C23.5054 9.9678 23.5189 9.95143 23.5382 9.94758Z" fill="#111111"/>
<path opacity="0.27" d="M21.822 13.9959C22.5969 13.5964 22.9926 12.8217 22.7058 12.2656C22.4191 11.7095 21.5585 11.5826 20.7836 11.9822C20.0088 12.3818 19.6131 13.1565 19.8998 13.7126C20.1866 14.2686 21.0472 14.3955 21.822 13.9959Z" fill="#CFCFD0"/>
<path d="M23.0277 13.2C23.2521 13.3357 23.5006 13.4263 23.7606 13.4658L23.0277 13.2Z" fill="#F5F6F7"/>
<path d="M23.047 13.1663C23.2146 13.1355 23.361 13.1037 23.4881 13.0767C23.5527 13.0651 23.6297 12.9823 23.6644 13.0507C23.7222 13.1682 23.7568 13.2963 23.7655 13.4273C23.7694 13.4542 23.7655 13.4802 23.7539 13.5043C23.7068 13.6401 23.6037 13.749 23.4708 13.8038C23.3783 13.8395 23.3311 13.7181 23.2724 13.6613C23.153 13.5409 23.0615 13.3945 23.0066 13.2327C23.0027 13.2202 23.0037 13.2067 23.0095 13.1942C23.0153 13.1826 23.0259 13.173 23.0384 13.1682L23.047 13.1663Z" fill="#111111"/>
<path d="M17.5736 15.2205C17.6016 15.3987 17.7451 15.5364 17.9242 15.5576C18.0022 15.5701 18.0889 15.4969 18.1457 15.5701C18.2497 15.6828 18.3345 15.8119 18.3952 15.9535C18.4067 15.9785 18.4058 16.0074 18.3913 16.0315C18.3085 16.1971 18.1457 16.3088 17.9608 16.3252C17.7961 16.3445 17.6661 16.1836 17.5582 16.0604C17.4456 15.9332 17.3743 15.7753 17.3541 15.6077C17.3415 15.4526 17.3964 15.3005 17.5033 15.1878C17.5207 15.1724 17.5476 15.1743 17.5631 15.1907C17.5698 15.1993 17.5736 15.2099 17.5736 15.2205Z" fill="#111111"/>
</g>
</svg>
