<svg width="32" height="32" viewBox="0 0 32 32" fill="none" xmlns="http://www.w3.org/2000/svg">
<mask id="mask0_3002_334" style="mask-type:luminance" maskUnits="userSpaceOnUse" x="0" y="0" width="32" height="32">
<path d="M15.6018 31.7979C24.1124 31.7979 31.0115 24.8987 31.0115 16.3882C31.0115 7.87766 24.1124 0.978516 15.6018 0.978516C7.09129 0.978516 0.192139 7.87766 0.192139 16.3882C0.192139 24.8987 7.09129 31.7979 15.6018 31.7979Z" fill="white"/>
</mask>
<g mask="url(#mask0_3002_334)">
<path d="M19.3646 35.0224L26.2161 31.4858C30.9517 34.6005 33.841 58.8139 33.841 58.8139L22.8347 53.0594L19.3646 35.0224Z" fill="#111111"/>
<path d="M26.2605 41.1006C26.0062 45.7851 25.4881 51.9952 24.4508 59.2089L0.53594 57.6746L-9.07007 39.42L-9.03348 30.9225C-9.03348 30.9225 7.47705 15.9404 26.4839 31.7055" fill="#111111"/>
<path d="M6.74316 24.7277L8.73583 17.1057L14.4249 18.9529V25.373L14.6098 27.8328L13.8663 29.3372L12.3032 29.0993L9.03245 28.8113" fill="#F5F6F7"/>
<mask id="mask1_3002_334" style="mask-type:luminance" maskUnits="userSpaceOnUse" x="6" y="17" width="9" height="13">
<path fill-rule="evenodd" clip-rule="evenodd" d="M6.74316 24.7277L8.73583 17.1057L14.4249 18.9529V25.373L14.6098 27.8328L13.8663 29.3372L12.3032 29.0993L9.03245 28.8113" fill="white"/>
</mask>
<g mask="url(#mask1_3002_334)">
<path d="M16.1845 26.7011C9.00742 25.295 15.2522 23.6462 12.6951 22.4423C11.9921 22.1119 13.1112 18.6708 13.1112 18.6708L15.0615 19.9469" fill="#CFCFD0"/>
</g>
<path d="M6.74316 24.7277L8.73583 17.1057L14.4249 18.9529V25.373L14.6098 27.8328L13.8663 29.3372L12.3032 29.0993L9.03245 28.8113" stroke="#111111" stroke-width="4.17418" stroke-linecap="round" stroke-linejoin="round"/>
<path d="M10.0823 16.8737L12.0826 12.1333L17.7052 7.72705C18.5479 12.818 23.611 27.1144 12.4515 21.6112" fill="#F5F6F7"/>
<path d="M10.0446 16.8582L11.9564 12.0812C11.9641 12.0609 11.9766 12.0426 11.994 12.0292L11.9978 12.0263L17.5491 7.5276C17.6175 7.4727 17.709 7.4573 17.7918 7.48715C17.8747 7.51701 17.9354 7.58731 17.9527 7.67399L17.9546 7.68554C18.2898 9.40758 18.7665 11.1267 19.1575 12.8661C19.5967 14.6122 19.8731 16.3959 19.9839 18.194C20.0272 19.1272 19.9136 20.0615 19.6477 20.9571C19.3733 21.9385 18.6182 22.7138 17.6435 23.0134C16.717 23.2021 15.7549 23.1232 14.8707 22.7851C14.0213 22.4923 13.2036 22.11 12.4331 21.6467C12.4245 21.6409 12.4177 21.6332 12.4148 21.6226C12.412 21.613 12.4129 21.6015 12.4187 21.5928C12.4293 21.5755 12.4495 21.5687 12.4688 21.5754C13.2855 21.9068 14.1253 22.1774 14.9815 22.3864C15.7905 22.6089 16.6438 22.6166 17.4577 22.4085C18.2031 22.1369 18.754 21.4984 18.9129 20.7212C19.1219 19.9025 19.2047 19.0569 19.1585 18.2142C19.0843 16.4623 18.8676 14.7191 18.5084 13.0029C18.1809 11.2625 17.7466 9.54434 17.4557 7.76838L17.8612 7.92632L12.1664 12.241L12.2078 12.1871L10.1178 16.889C10.1092 16.9092 10.086 16.9179 10.0668 16.9092C10.0465 16.9005 10.0369 16.8784 10.0446 16.8582Z" fill="#111111"/>
<path d="M9.3194 17.1895C11.4325 18.0274 14.3488 13.8321 13.1035 12.479C13.1035 12.479 16.6631 13.9092 19.171 11.8327C27.6781 12.9297 27.1157 2.47712 19.6545 5.46756C15.7703 3.33043 11.4469 5.44059 11.6347 7.83294C8.71267 5.24989 3.02455 14.6931 9.3194 17.1895Z" fill="#111111"/>
<path d="M8.95442 19.4548C5.1463 16.2409 7.99518 11.435 12.3446 17.2473L8.95442 19.4548Z" fill="#F5F6F7"/>
<path d="M8.92746 19.4846C8.15601 18.927 7.54828 18.1729 7.16593 17.3013C6.98005 16.8371 6.90395 16.3363 6.9444 15.8383C6.98004 15.2845 7.26322 14.777 7.71587 14.4553C8.19935 14.1616 8.78297 14.0826 9.32712 14.2386C9.8212 14.3725 10.2796 14.6104 10.6726 14.9378C11.4055 15.561 11.9882 16.343 12.3754 17.2233C12.3831 17.2406 12.3773 17.2608 12.3628 17.2724C12.3474 17.2839 12.3263 17.283 12.3118 17.2714C11.5866 16.6676 10.9172 16.0579 10.1997 15.5735C9.85876 15.3385 9.49279 15.1439 9.10851 14.9918C8.77142 14.8136 8.36595 14.8184 8.03272 15.0033C7.69852 15.1892 7.48087 15.5301 7.45391 15.9115C7.38553 16.3334 7.41539 16.7648 7.54155 17.1732C7.81219 18.0381 8.30816 18.8153 8.97848 19.4249C8.98619 19.4317 8.991 19.4413 8.991 19.4519C8.99196 19.4625 8.98812 19.4731 8.98042 19.4808C8.96694 19.4952 8.94383 19.4972 8.92746 19.4846Z" fill="#111111"/>
<path d="M17.3206 14.4287C17.231 14.1505 16.9329 13.9975 16.6546 14.087C16.3763 14.1766 16.2233 14.4747 16.3129 14.753L16.5867 15.6039C16.6762 15.8822 16.9744 16.0352 17.2527 15.9456C17.5309 15.8561 17.6839 15.5579 17.5944 15.2797L17.3206 14.4287Z" fill="#111111"/>
<path d="M16.5746 12.2555C15.0307 12.6774 14.8949 13.418 15.8773 13.2167C16.8597 13.0154 17.583 11.9801 16.5746 12.2555Z" fill="#111111"/>
<path d="M18.3438 14.6257C20.5801 15.218 20.5233 17.3908 19.0873 17.3417L18.3438 14.6257Z" fill="#F5F6F7"/>
<path d="M18.3534 14.5881C18.7242 14.6295 19.0844 14.7355 19.4186 14.8992C19.7759 15.0928 20.0716 15.3817 20.2738 15.7333C20.5454 16.133 20.5676 16.653 20.3287 17.0739C20.0648 17.4938 19.5149 17.6296 19.0854 17.3811C19.0642 17.3667 19.0584 17.3378 19.0728 17.3166C19.0776 17.3108 19.0825 17.3051 19.0892 17.3012C19.3483 17.1827 19.5467 16.9612 19.6353 16.6906C19.7191 16.4652 19.7383 16.2206 19.6911 15.9846C19.5987 15.6899 19.4253 15.426 19.1913 15.2238C18.9389 14.9898 18.6491 14.8 18.3332 14.6642C18.3235 14.6604 18.3149 14.6536 18.3101 14.644C18.3062 14.6344 18.3052 14.6228 18.3091 14.6132C18.3178 14.5958 18.3351 14.5862 18.3534 14.5881Z" fill="#111111"/>
<path opacity="0.27" d="M15.6536 17.6957C16.3125 17.6014 16.7903 17.131 16.7207 16.645C16.6511 16.1591 16.0606 15.8416 15.4016 15.936C14.7427 16.0303 14.2649 16.5007 14.3345 16.9867C14.404 17.4726 14.9946 17.7901 15.6536 17.6957Z" fill="#CFCFD0"/>
<path d="M16.4098 17.88C16.9405 18.3442 17.6811 18.4839 18.3437 18.2421L16.4098 17.88Z" fill="#F5F6F7"/>
<path d="M16.4348 17.8493C16.7373 17.9706 17.0618 18.0255 17.3874 18.012C17.5386 18.0072 17.6734 17.9099 17.8102 17.9571C17.9951 18.012 18.1694 18.0958 18.3283 18.2056L18.337 18.2114C18.3591 18.2258 18.3688 18.2538 18.3601 18.2788C18.2831 18.5051 18.102 18.6795 17.8728 18.7469C17.6647 18.7835 17.45 18.744 17.2689 18.6352C17.084 18.562 16.9106 18.4618 16.7537 18.3376C16.613 18.2114 16.4888 18.0679 16.3838 17.9099C16.378 17.9013 16.3751 17.8897 16.3771 17.8791C16.379 17.8685 16.3857 17.8589 16.3944 17.8531C16.4069 17.8454 16.4214 17.8444 16.4348 17.8493Z" fill="#111111"/>
<path d="M15.0654 32.5857L12.3032 29.1002C12.3032 29.1002 14.5521 28.4405 14.7052 24.0054L16.9165 25.8565L15.0654 32.5857Z" fill="#111111"/>
<path d="M3.81531 24.9156C4.58675 23.6857 5.82821 22.8247 7.25072 22.5338C7.25072 22.5338 6.66802 27.4168 12.3041 29.0993L9.34355 33.1328C9.34355 33.1328 4.17262 28.2229 3.81531 24.9156Z" fill="#111111"/>
<path d="M19.4042 5.45409C19.5101 5.44831 19.617 5.45409 19.722 5.47046C19.7644 5.47816 19.8684 5.45504 19.8279 5.50513C19.747 5.59662 19.6507 5.67368 19.5448 5.73435C19.5226 5.7488 19.4986 5.76131 19.4735 5.76998C19.3618 5.8191 19.2424 5.84992 19.1201 5.85955C19.0565 5.86244 19.1364 5.7931 19.1557 5.75457C19.2058 5.66019 19.2655 5.57158 19.3329 5.48972C19.3502 5.46853 19.3762 5.45505 19.4042 5.45409Z" fill="#111111"/>
<path d="M9.61421 16.7503C9.58917 16.8052 9.60171 16.8697 9.64601 16.9102C9.67298 16.94 9.70958 16.9603 9.75003 16.9651C9.78566 16.9776 9.88676 16.9323 9.81742 16.9179C9.76445 16.9121 9.63252 16.9314 9.57858 17.1529L9.57376 17.1731C9.56895 17.1924 9.56027 17.2107 9.54775 17.2261C9.49575 17.2954 9.41679 17.3387 9.33011 17.3436C9.24343 17.3484 9.15865 17.3147 9.09894 17.2521C8.98722 17.1461 9.07488 16.9978 9.11822 16.9092C9.16445 16.8167 9.23476 16.7378 9.32144 16.6819C9.40715 16.6366 9.50829 16.6328 9.5969 16.6732C9.62001 16.6867 9.62961 16.7156 9.61806 16.7407L9.61421 16.7503Z" fill="#111111"/>
</g>
</svg>
