<svg width="32" height="31" viewBox="0 0 32 31" fill="none" xmlns="http://www.w3.org/2000/svg">
<mask id="mask0_3002_254" style="mask-type:luminance" maskUnits="userSpaceOnUse" x="0" y="0" width="32" height="31">
<path d="M15.9493 30.7973C24.3042 30.7973 31.0772 24.0243 31.0772 15.6694C31.0772 7.3144 24.3042 0.541382 15.9493 0.541382C7.59432 0.541382 0.821289 7.3144 0.821289 15.6694C0.821289 24.0243 7.59432 30.7973 15.9493 30.7973Z" fill="white"/>
</mask>
<g mask="url(#mask0_3002_254)">
<path fill-rule="evenodd" clip-rule="evenodd" d="M-7.94822 45.2915L-6.65863 47.0858C-6.56425 47.34 -6.46986 47.6107 -6.39281 47.8784L-6.28783 48.2848L-6.26086 48.3908C-6.25508 48.4139 -6.24545 48.437 -6.23197 48.4572C-6.21367 48.4842 -6.18092 48.4967 -6.14914 48.49C-6.13084 48.4842 -6.11447 48.4736 -6.10195 48.4592L-5.96519 48.2897C-5.58766 47.8852 -5.11285 47.5837 -4.58699 47.4123C-3.75487 47.1041 -2.91503 46.8122 -2.07617 46.5204C-1.8508 46.4424 -1.62544 46.3644 -1.40104 46.2864L4.98147 44.0578C7.10512 43.3046 9.22105 42.5293 11.3274 41.7309C13.0667 41.0837 14.7984 40.4143 16.5301 39.745C16.8999 39.6015 17.2697 39.4589 17.6395 39.3164L17.6463 39.3135L17.6521 39.3116C17.8418 39.2336 17.9314 39.0169 17.8534 38.8271L14.5374 30.7804L14.5345 30.7756L14.5306 30.766C14.4979 30.6937 14.4372 30.6379 14.3631 30.6099C14.2889 30.582 14.2061 30.5849 14.1338 30.6186L0.2401 36.9703L-6.68848 40.188L-8.4211 40.9912L-9.2879 41.3919L-9.7213 41.5922C-9.8205 41.6307 -9.87925 41.7328 -9.86288 41.8378C-9.85228 41.9226 -9.82917 42.0054 -9.7945 42.0834C-9.50268 42.6526 -9.16366 43.1977 -8.78131 43.712L-8.24485 44.5008C-8.15817 44.6337 -8.07151 44.7666 -7.99542 44.9043C-7.95593 44.9708 -7.92222 45.0411 -7.89333 45.1133L-7.89043 45.121C-7.86539 45.1981 -7.84999 45.2482 -7.9097 45.2308C-7.92126 45.2279 -7.93281 45.2299 -7.94244 45.2366C-7.95882 45.2482 -7.96267 45.2722 -7.95111 45.2886L-7.94822 45.2915ZM-6.2965 47.8495C-6.38318 47.577 -6.48045 47.3179 -6.59121 47.0482L-7.84807 45.2992C-7.81628 45.2848 -7.7893 45.2578 -7.79219 45.2173C-7.79316 45.173 -7.80279 45.1278 -7.82013 45.0864C-7.85095 45.0103 -7.88658 44.9371 -7.92703 44.8668C-8.006 44.7262 -8.09268 44.5923 -8.18032 44.4584L-8.71775 43.6687C-9.09336 43.1582 -9.41984 42.615 -9.69336 42.0439C-9.74344 41.9062 -9.80027 41.7271 -9.67314 41.702L-9.2359 41.5113L-8.36044 41.129L-6.60855 40.3691L0.40093 37.3295L14.0915 31.2957L17.0193 38.7501C16.7756 38.8397 16.532 38.9302 16.2883 39.0198C14.5374 39.667 12.7865 40.3142 11.0432 40.9826C8.93693 41.7829 6.83833 42.6006 4.7455 43.4366L-1.51468 45.9878L-4.64958 47.2533C-5.19374 47.4479 -5.68011 47.7782 -6.06247 48.2116L-6.15684 48.3359L-6.179 48.2579L-6.2965 47.8495ZM-6.15684 48.3359L-6.18573 48.3754C-6.18862 48.3783 -6.1896 48.3792 -6.1896 48.3792C-6.1896 48.3802 -6.1867 48.3773 -6.17996 48.3763C-6.16551 48.3734 -6.15011 48.3773 -6.13952 48.3869L-6.15107 48.3561L-6.15684 48.3359ZM17.0193 38.7501L17.1599 39.1074L17.3747 38.6181C17.2562 38.6624 17.1378 38.7058 17.0193 38.7501ZM14.0915 31.2957L14.3804 31.1685L13.9778 31.0058L14.0915 31.2957ZM-7.84807 45.2992L-7.88561 45.2472L-7.92415 45.3079C-7.90488 45.3146 -7.87407 45.3117 -7.84807 45.2992Z" fill="#111111"/>
<path d="M9.84029 32.3098C9.84029 32.3098 9.25567 39.3867 15.0863 42.5014L21.9533 39.642C23.4759 39.0073 24.6615 37.76 25.2172 36.2066C25.772 34.6531 25.6468 32.9368 24.8715 31.4806C23.4143 28.7454 20.079 27.6186 17.262 28.9091L9.84029 32.3098Z" fill="#ECEDEE"/>
<path fill-rule="evenodd" clip-rule="evenodd" d="M13.5867 30.3558C12.3 30.9943 11.0412 31.6473 9.80748 32.2878C9.74199 33.3067 9.80267 34.3286 9.98951 35.3331C10.1667 36.3347 10.4701 37.3104 10.8919 38.2359C11.3119 39.1701 11.882 40.0302 12.5803 40.7804C13.2795 41.5345 14.0933 42.175 14.9919 42.6777C15.04 42.7066 15.0988 42.7114 15.1508 42.6903L15.1633 42.6854L19.1265 41.0819L21.1085 40.2796C21.7972 40.0379 22.4607 39.7277 23.0887 39.3541C25.7334 37.6359 26.6657 34.2053 25.2538 31.3853C23.8274 28.5394 20.4556 27.2642 17.5027 28.4536C16.4568 28.9159 15.4619 29.4158 14.4699 29.9137C14.1752 30.062 13.8814 30.2094 13.5867 30.3558ZM10.1455 35.3023C9.94329 34.3257 9.85178 33.3298 9.87201 32.3321C12.5831 31.2457 15.197 30.1564 17.7396 29.0768C20.3602 28.1474 23.2659 29.2809 24.5642 31.7388C25.8788 34.2265 25.1064 37.3046 22.7738 38.8764C22.1824 39.2423 21.5564 39.5496 20.9044 39.7913L18.9396 40.6331L15.0959 42.28C14.2541 41.8225 13.4856 41.2427 12.8143 40.5589C12.117 39.8491 11.5411 39.0295 11.1096 38.1319C10.6704 37.2333 10.3468 36.2827 10.1455 35.3023ZM15.0959 42.28L15.0092 42.3166L15.1806 42.3252C15.1518 42.3098 15.1238 42.2944 15.0959 42.28Z" fill="#111111"/>
<path d="M16.0609 29.7432L11.6836 21.9093L17.441 17.7179L23.264 26.9377L16.0609 29.7432Z" fill="#F5F6F7"/>
<mask id="mask1_3002_254" style="mask-type:luminance" maskUnits="userSpaceOnUse" x="11" y="17" width="13" height="13">
<path fill-rule="evenodd" clip-rule="evenodd" d="M16.0609 29.7432L11.6836 21.9093L17.441 17.7179L23.264 26.9377L16.0609 29.7432Z" fill="white"/>
</mask>
<g mask="url(#mask1_3002_254)">
<path d="M15.5881 19.3986C12.144 25.5615 18.1258 28.8948 18.1258 28.8948L12.5755 28.9872L8.64697 21.3228L14.6885 20.2865" fill="#CFCFD0"/>
</g>
<path d="M16.0609 29.7432L11.6836 21.9093L17.441 17.7179L23.264 26.9377L16.0609 29.7432Z" stroke="#111111" stroke-width="4.17418" stroke-linecap="round" stroke-linejoin="round"/>
<path d="M14.5778 21.9421C6.46171 26.5833 6.08321 17.8065 10.4615 11.556C15.8289 3.89253 18.7991 14.5772 18.7991 14.5772L17.7849 17.7179" fill="#F5F6F7"/>
<path d="M14.5971 21.9757C13.5069 22.6797 12.2789 23.1439 10.9951 23.3356C10.3276 23.4165 9.65155 23.2874 9.06116 22.9658C8.48715 22.5969 8.05183 22.0489 7.82164 21.4075C7.42003 20.1448 7.35551 18.7984 7.63385 17.504C7.87077 16.2192 8.27142 14.9701 8.82521 13.7874C9.37321 12.5979 10.0609 11.4778 10.8747 10.4502C11.2888 9.91665 11.7781 9.44473 12.3271 9.04986C12.9146 8.61357 13.6292 8.38339 14.3611 8.39495C15.0931 8.46333 15.7807 8.77634 16.3133 9.2839C16.8093 9.74811 17.2302 10.2855 17.5625 10.8769C18.2193 12.0143 18.7105 13.2394 19.0197 14.5155L19.0235 14.5299C19.0332 14.5685 19.0312 14.6099 19.0177 14.6474C18.6383 15.6808 18.2395 16.7085 17.8216 17.7294C17.8148 17.7496 17.7936 17.7602 17.7734 17.7534C17.7532 17.7467 17.7426 17.7265 17.7474 17.7062C18.0074 16.6333 18.2848 15.5672 18.5805 14.5068L18.5776 14.6388C18.1702 13.4512 17.628 12.3157 16.9605 11.2525C16.2912 10.246 15.3926 9.26367 14.313 9.2001C13.2362 9.13557 12.2028 9.986 11.4082 10.901C10.5935 11.8564 9.901 12.91 9.34625 14.0378C8.77994 15.1636 8.36002 16.3579 8.09806 17.5907C7.80335 18.8071 7.82358 20.0784 8.15874 21.2832C8.34269 21.8649 8.71348 22.3706 9.21237 22.7202C9.74593 23.0332 10.3633 23.1719 10.9797 23.1179C12.2452 22.9725 13.4645 22.5603 14.5586 21.9083C14.5682 21.9035 14.5788 21.9015 14.5884 21.9044C14.599 21.9073 14.6067 21.9141 14.6125 21.9227C14.6221 21.942 14.6154 21.9651 14.5971 21.9757Z" fill="#111111"/>
<path d="M15.6575 16.6912C11.6692 16.6912 14.9929 12.5835 10.4615 11.5559C5.26363 6.39078 11.2166 4.37403 13.5425 7.08518C15.5862 1.76595 19.6447 3.76247 18.255 9.01813C23.3142 5.63474 22.9973 10.8355 21.2367 12.9803C27.6096 13.1604 19.8614 20.4752 19.4983 20.4752L14.7512 18.3227L15.6575 16.6912Z" fill="#111111"/>
<path d="M12.772 16.2135C17.5432 13.3444 18.7991 18.5827 14.5094 19.4707L12.772 16.2135Z" fill="#F5F6F7"/>
<path d="M12.7517 16.1808C13.4018 15.7137 14.1376 15.3814 14.9168 15.2032C15.3367 15.1281 15.7672 15.1493 16.1775 15.2649C16.6186 15.4026 16.9913 15.7031 17.2186 16.1057C17.678 16.9465 17.5152 17.9905 16.8218 18.6512C16.2035 19.2415 15.3704 19.5517 14.5171 19.5093C14.4949 19.5083 14.4776 19.49 14.4785 19.4679C14.4795 19.4525 14.4882 19.4399 14.5007 19.4332C15.1623 19.1211 15.7546 18.6791 16.242 18.133C16.6946 17.6755 16.8584 17.0062 16.6657 16.3917C16.3306 15.784 15.6429 15.4604 14.9611 15.5894C14.2021 15.6636 13.4644 15.887 12.7921 16.2472L12.7873 16.2492C12.769 16.2569 12.7478 16.2492 12.7392 16.2309C12.7295 16.2135 12.7353 16.1914 12.7517 16.1808Z" fill="#111111"/>
<path d="M15.8058 28.6144L15.5881 27.1756C20.0714 20.2268 22.0939 19.463 21.7838 24.6513L16.14 28.1522" fill="white"/>
<path d="M15.7672 28.6202L15.5042 27.188C15.5013 27.1697 15.5052 27.1505 15.5148 27.1341L15.5168 27.1293C16.5039 25.4015 17.6491 23.7671 18.9358 22.2492C19.2796 21.8572 19.6745 21.5134 20.1108 21.2283C20.3718 21.0579 20.68 20.9731 20.992 20.9875C21.3416 21.0386 21.6421 21.2611 21.7933 21.5808C22.0196 22.0739 22.1468 22.6085 22.166 23.1517C22.2036 23.6592 22.2094 24.1677 22.1834 24.6753C22.1786 24.8005 22.1131 24.9151 22.0091 24.9825L21.9946 24.9912C21.0633 25.5893 20.0992 26.1353 19.1294 26.6718C18.6517 26.9501 18.1518 27.1948 17.6616 27.4548C17.1714 27.7139 16.6677 27.9527 16.1611 28.1848C16.1428 28.1964 16.1187 28.1906 16.1071 28.1723C16.0965 28.154 16.1014 28.1299 16.1197 28.1184C16.554 27.7678 16.9913 27.424 17.441 27.0994C17.8918 26.7758 18.3329 26.4368 18.7952 26.1325C19.7063 25.5016 20.6241 24.8814 21.5728 24.3122L21.385 24.6271C21.4196 24.1456 21.4418 23.6631 21.435 23.1902C21.4466 22.7433 21.3734 22.2983 21.2212 21.8775C21.1355 21.7022 21.0421 21.6001 20.915 21.5876C20.73 21.5799 20.548 21.628 20.391 21.7253C19.9884 21.9651 19.6205 22.2588 19.2969 22.5969C18.617 23.299 17.9813 24.0444 17.3958 24.8274C16.7948 25.6056 16.2198 26.4089 15.6593 27.2208L15.6718 27.163L15.8442 28.6086C15.8481 28.6298 15.8336 28.649 15.8124 28.6529C15.7912 28.6558 15.771 28.6413 15.7681 28.6202H15.7672Z" fill="#111111"/>
<path d="M-1.38373 51.5517C-2.29097 53.1071 9.5504 59.9943 18.9099 59.009C20.0627 51.5854 36.0541 34.4171 21.8127 23.4965L15.5881 27.1755C15.5881 27.1755 9.8403 32.3098 -1.38373 51.5517Z" fill="#ECEDEE"/>
<path fill-rule="evenodd" clip-rule="evenodd" d="M-1.38373 51.5517C-2.29097 53.1071 9.5504 59.9943 18.9099 59.009C20.0627 51.5854 36.0541 34.4171 21.8127 23.4965L15.5881 27.1755C15.5881 27.1755 9.8403 32.3098 -1.38373 51.5517Z" stroke="#111111" stroke-width="4.17418" stroke-linecap="round" stroke-linejoin="round"/>
<path d="M-6.12617 13.537C-9.2107 9.04771 -15.3505 7.90892 -19.8398 10.9934C-24.3291 14.078 -25.4679 20.2178 -22.3833 24.7071L4.44265 63.7502C7.52718 68.2395 13.667 69.3783 18.1563 66.2938C22.6456 63.2092 23.7844 57.0695 20.6998 52.5802L-6.12617 13.537Z" fill="white"/>
<path fill-rule="evenodd" clip-rule="evenodd" d="M-3.46217 52.3896L8.55547 69.8045C9.35677 70.9766 10.9517 71.2886 12.1353 70.5046L13.2304 69.7621L17.6077 66.7909L21.9966 63.839L24.1934 62.3654C25.014 61.855 25.509 60.9526 25.4984 59.9866C25.4917 59.505 25.3588 59.035 25.1122 58.6219C24.9533 58.3666 24.7944 58.1326 24.6355 57.8976C24.5488 57.7695 24.4621 57.6405 24.3745 57.5085L22.9009 55.3126L19.9509 50.9218L14.0153 42.1643L2.03042 24.7273L-10.0122 7.33075C-10.9002 6.04693 -12.655 5.71562 -13.9504 6.5853L-15.0416 7.33845L-19.3929 10.3462L-23.7442 13.353L-25.9198 14.8574C-26.752 15.389 -27.246 16.3165 -27.2239 17.3037C-27.2114 17.7901 -27.0708 18.2658 -26.8165 18.6809C-26.6528 18.9352 -26.491 19.1673 -26.3292 19.3985C-26.2406 19.5265 -26.152 19.6537 -26.0634 19.7847L-24.559 21.9603L-21.5522 26.3116L-15.5366 35.0142L-3.46217 52.3896ZM10.8611 70.8234C9.97894 70.8899 9.12659 70.4854 8.62 69.7602L-3.32637 52.2972L-15.2159 34.7946L-21.1823 26.0583L-24.166 21.6906L-25.6579 19.5063C-25.7446 19.3773 -25.8341 19.2472 -25.9237 19.1163C-26.0855 18.8813 -26.2483 18.6463 -26.3898 18.4219C-26.5969 18.0809 -26.7106 17.6909 -26.7183 17.2912C-26.7327 16.4774 -26.3176 15.7146 -25.6251 15.286L-23.4408 13.7941L-19.0731 10.8104L-14.7055 7.82675L-13.6152 7.08419C-12.5953 6.40616 -11.219 6.67295 -10.5256 7.68228L1.39574 25.1636L13.3748 42.6045L19.4212 51.2859L22.4617 55.6141L23.9834 57.7772C24.0711 57.9044 24.1626 58.0324 24.2531 58.1605C24.4188 58.3946 24.5844 58.6286 24.7318 58.852C24.9475 59.1959 25.0679 59.5908 25.0823 59.9962C25.1777 61.3465 24.048 62.0842 22.924 62.8181C22.5407 63.0685 22.1593 63.318 21.8261 63.5905L17.4969 66.6301L13.1533 69.6494C12.9819 69.7602 12.8143 69.8815 12.6467 70.0029C12.0958 70.4006 11.5449 70.7984 10.8611 70.8234Z" fill="#111111"/>
<path d="M24.2223 45.2971L-12.6511 15.559C-16.891 12.1396 -23.1 12.8047 -26.5193 17.0445C-29.9387 21.2843 -29.2736 27.4933 -25.0338 30.9127L11.8396 60.6508C16.0794 64.0702 22.2884 63.4051 25.7078 59.1653C29.1272 54.9255 28.4621 48.7165 24.2223 45.2971Z" fill="#111111"/>
<path d="M-11.5392 25.9252L-11.5392 25.9252C-12.0219 26.5237 -11.928 27.4002 -11.3295 27.8829L18.768 52.1563C19.3665 52.639 20.243 52.5451 20.7257 51.9466C21.2084 51.3481 21.1145 50.4716 20.516 49.9889L-9.58151 25.7155C-10.18 25.2328 -11.0565 25.3267 -11.5392 25.9252Z" fill="white"/>
<path fill-rule="evenodd" clip-rule="evenodd" d="M6.99819 42.8317C11.0606 46.034 15.1229 49.2354 19.1343 52.5013C19.5224 52.8172 20.0897 52.7739 20.4248 52.4031L20.8602 51.8782C21.0239 51.7106 21.1578 51.516 21.256 51.3032C21.3369 51.0692 21.3244 50.813 21.2223 50.5876C21.1077 50.3777 20.9439 50.1985 20.7446 50.0666L19.6967 49.2027L15.5361 45.7056C12.7691 43.3663 9.98671 41.0452 7.18986 38.7424L-1.27199 31.9226L-9.77717 25.1578C-10.278 24.76 -11.0032 24.8246 -11.426 25.3042L-11.8604 25.8445L-12.0713 26.1093C-12.1657 26.2249 -12.2379 26.3559 -12.2861 26.4965C-12.4324 26.9376 -12.3082 27.423 -11.9673 27.7379C-11.8931 27.8044 -11.8382 27.8468 -11.7833 27.8901C-11.7525 27.9142 -11.7217 27.9383 -11.688 27.9662L-10.6257 28.8128L-6.37838 32.2019L2.11814 38.9783C3.74193 40.2651 5.37055 41.5489 6.99819 42.8317ZM20.343 52.3308C20.0473 52.6708 19.5368 52.719 19.1824 52.4416V52.4406C15.1403 49.2123 11.1501 45.9204 7.15999 42.6276C5.56124 41.3091 3.96346 39.9896 2.36181 38.675L-6.06055 31.8071L-10.2722 28.3736L-11.3249 27.5155C-11.3528 27.4914 -11.3855 27.4654 -11.4183 27.4394C-11.477 27.3912 -11.5368 27.344 -11.5705 27.3113C-11.74 27.1514 -11.8007 26.9058 -11.7246 26.6853C-11.6986 26.6121 -11.6581 26.5437 -11.608 26.484L-11.3933 26.2211L-10.9705 25.7058C-10.7624 25.4746 -10.4109 25.4467 -10.1692 25.6422L-1.75547 32.5217L6.70059 39.3472C9.53982 41.598 12.3974 43.8247 15.2742 46.0292L19.5725 49.3539L20.6396 50.1956C20.8226 50.3083 20.9757 50.4653 21.0836 50.6512C21.1751 50.8409 21.1895 51.0586 21.125 51.2589C21.0364 51.4583 20.9141 51.6412 20.7638 51.8011L20.343 52.3308Z" fill="#111111"/>
<path fill-rule="evenodd" clip-rule="evenodd" d="M-10.1702 48.2242C-9.51525 48.2232 -8.87575 48.0229 -8.33738 47.6502L13.8131 32.3271L18.4928 39.9983L-2.16098 52.4965C-3.22713 53.1389 -4.50518 53.3296 -5.71195 53.0243C-6.91873 52.719 -7.95213 51.9427 -8.58393 50.8708L-10.1702 48.2242Z" stroke="#111111" stroke-width="4.17418" stroke-linecap="round" stroke-linejoin="round"/>
<path d="M9.28455 34.6126C9.28455 34.6126 9.9722 42.095 16.6176 44.2726L23.2496 40.0349C24.7202 39.0949 25.7267 37.578 26.0214 35.857C26.3151 34.1369 25.8702 32.3715 24.7953 30.9962C22.7767 28.4122 19.0947 27.8487 16.3952 29.7104L9.28455 34.6126Z" fill="#ECEDEE"/>
<path fill-rule="evenodd" clip-rule="evenodd" d="M9.28455 34.6126C9.28455 34.6126 9.9722 42.095 16.6176 44.2726L23.2496 40.0349C24.7202 39.0949 25.7267 37.578 26.0214 35.857C26.3151 34.1369 25.8702 32.3715 24.7953 30.9962C22.7767 28.4122 19.0947 27.8487 16.3952 29.7104L9.28455 34.6126Z" stroke="#111111" stroke-width="4.17418" stroke-linecap="round" stroke-linejoin="round"/>
<path d="M9.84095 15.4388C9.75898 15.7134 9.91513 16.0024 10.1897 16.0844C10.4643 16.1663 10.7533 16.0102 10.8353 15.7356L11.086 14.8959C11.1679 14.6213 11.0118 14.3323 10.7372 14.2503C10.4626 14.1683 10.1736 14.3245 10.0916 14.5991L9.84095 15.4388Z" fill="#111111"/>
<path d="M10.7908 12.4545C12.3125 12.8359 12.4608 13.5582 11.4939 13.382C10.5269 13.2057 9.79689 12.205 10.7908 12.4545Z" fill="#111111"/>
<path d="M9.10836 14.8151C6.92789 15.4411 7.02998 17.5705 8.43611 17.4915L9.10836 14.8151Z" fill="#F5F6F7"/>
<path d="M9.11889 14.8516C8.81166 14.9923 8.5314 15.1829 8.28966 15.4189C8.0643 15.6212 7.89959 15.8831 7.81484 16.1749C7.77439 16.4071 7.79848 16.6459 7.88516 16.8645C7.97762 17.1284 8.17698 17.3413 8.43317 17.453C8.44376 17.4588 8.45242 17.4684 8.45531 17.48C8.45917 17.4915 8.45724 17.504 8.45146 17.5146C8.44761 17.5204 8.44279 17.5262 8.43797 17.53C8.02191 17.7843 7.47969 17.662 7.21195 17.2556C6.97021 16.8482 6.9808 16.3377 7.23891 15.9409C7.42961 15.5913 7.71373 15.3024 8.05948 15.1059C8.38405 14.9374 8.73461 14.8266 9.0977 14.7775C9.11792 14.7736 9.13912 14.7881 9.14298 14.8093C9.14394 14.8266 9.1343 14.8439 9.11889 14.8516Z" fill="#111111"/>
<path opacity="0.27" d="M11.101 17.963C11.8249 17.963 12.4118 17.6247 12.4118 17.2074C12.4118 16.7901 11.8249 16.4518 11.101 16.4518C10.3771 16.4518 9.79028 16.7901 9.79028 17.2074C9.79028 17.6247 10.3771 17.963 11.101 17.963Z" fill="#CFCFD0"/>
<path d="M10.9959 18.3929C10.4855 18.8601 9.76221 19.0113 9.1073 18.7888L10.9959 18.3929Z" fill="#F5F6F7"/>
<path d="M11.022 18.4228C10.9228 18.5788 10.8034 18.7223 10.6685 18.8495C10.5173 18.9737 10.3498 19.0758 10.1697 19.1519C9.99437 19.2626 9.78537 19.306 9.58023 19.2742C9.35487 19.2126 9.17283 19.045 9.09386 18.8254C9.08423 18.8004 9.0929 18.7734 9.11505 18.7589L9.12275 18.7532C9.27589 18.6414 9.4454 18.5557 9.62454 18.4979C9.75841 18.4479 9.89324 18.5413 10.0406 18.5432C10.3603 18.5499 10.6772 18.4883 10.971 18.3641C10.9912 18.3544 11.0153 18.3631 11.0249 18.3824C11.0297 18.3958 11.0287 18.4103 11.022 18.4228Z" fill="#111111"/>
<path d="M14.8532 16.8867C14.8898 16.7962 14.9775 16.7365 15.0748 16.7374C15.172 16.7384 15.2587 16.7991 15.2934 16.8906C15.329 16.9657 15.3463 17.0495 15.3425 17.1333C15.3541 17.2094 15.4089 17.3317 15.3165 17.3721C15.1836 17.4222 15.0333 17.3952 14.9255 17.3028C14.9052 17.2903 14.8889 17.2739 14.8763 17.2537L14.8715 17.246C14.8089 17.1439 14.7367 17.0485 14.6577 16.958C14.6154 16.9185 14.7107 16.9551 14.7502 16.9426C14.7598 16.9821 14.781 17.0177 14.8118 17.0447C14.8484 17.1015 14.9235 17.1236 14.938 17.1044C14.9784 17.0581 14.9226 16.9984 14.8744 16.9609L14.8638 16.9532C14.8436 16.9378 14.8388 16.9079 14.8532 16.8867Z" fill="#111111"/>
<path d="M15.354 9.00753C15.382 9.33306 15.4436 9.65474 15.5389 9.96775C15.5823 10.118 15.7036 10.2442 15.6786 10.3963C15.6574 10.5918 15.59 10.7787 15.4841 10.9443C15.4686 10.9684 15.4388 10.9809 15.4109 10.9723C15.198 10.9135 15.0189 10.7662 14.9206 10.5678C14.86 10.3867 14.859 10.1912 14.9177 10.0092C14.9601 9.64607 15.0834 9.29743 15.2789 8.98827C15.2847 8.9796 15.2943 8.97286 15.3049 8.97093C15.3155 8.96804 15.3261 8.96997 15.3357 8.97575C15.3463 8.98346 15.3531 8.99501 15.354 9.00753Z" fill="#111111"/>
</g>
</svg>
