<svg width="15" height="16" viewBox="0 0 15 16" fill="none" xmlns="http://www.w3.org/2000/svg">
<path d="M4.35775 14.5789L0.536142 15.4284L1.3856 11.6068C0.826041 10.5599 0.534216 9.39164 0.536142 8.2051C0.536142 4.21592 3.77025 0.981812 7.75943 0.981812C11.7486 0.981812 14.9827 4.21592 14.9827 8.2051C14.9827 12.1943 11.7486 15.4284 7.75943 15.4284C6.57288 15.4303 5.40464 15.1385 4.35775 14.5789ZM4.5677 13.0524L5.03962 13.3057C5.8756 13.7526 6.81077 13.9857 7.75943 13.9837C8.90264 13.9837 10.0198 13.6447 10.9695 13.01C11.92 12.3754 12.6607 11.4719 13.0979 10.4164C13.5352 9.36082 13.6498 8.19837 13.4273 7.07731C13.2039 5.95722 12.6539 4.92668 11.8459 4.11863C11.0378 3.31059 10.0073 2.76066 8.88722 2.53722C7.76617 2.31474 6.60371 2.42936 5.54814 2.86661C4.49258 3.30386 3.58919 4.04448 2.9545 4.99506C2.31981 5.94468 1.9808 7.06189 1.9808 8.2051C1.9808 9.1682 2.2158 10.0957 2.65979 10.9249L2.91213 11.3968L2.43924 13.5253L4.5677 13.0524Z" fill="#FFAD99"/>
</svg>
