<svg width="18" height="18" viewBox="0 0 18 18" fill="none" xmlns="http://www.w3.org/2000/svg">
<path d="M17.4505 13.1362V16.5417C17.4505 16.7854 17.3581 17.0204 17.1924 17.1985C17.0258 17.3767 16.7985 17.4855 16.5548 17.5029C16.134 17.5318 15.7901 17.5472 15.5243 17.5472C7.01335 17.5472 0.114624 10.6485 0.114624 2.13751C0.114624 1.8717 0.129061 1.52786 0.158917 1.10698C0.176253 0.863319 0.285093 0.636038 0.463268 0.469421C0.641442 0.303767 0.876446 0.211304 1.12011 0.211304H4.52563C4.64506 0.211304 4.76063 0.255604 4.84923 0.335542C4.93784 0.41548 4.99372 0.526236 5.00527 0.644698C5.02743 0.866212 5.04765 1.04246 5.06691 1.17633C5.25857 2.51216 5.65056 3.8114 6.23035 5.02972C6.32184 5.22234 6.26213 5.45253 6.08877 5.57581L4.0104 7.06091C5.28073 10.0215 7.6413 12.3821 10.6019 13.6524L12.085 11.5779C12.1457 11.4931 12.2343 11.4324 12.3345 11.4064C12.4356 11.3795 12.5425 11.3901 12.6369 11.4344C13.8553 12.0132 15.1545 12.4042 16.4893 12.5949C16.6232 12.6142 16.7995 12.6354 17.019 12.6565C17.1375 12.6691 17.2473 12.7249 17.3272 12.8135C17.4072 12.9021 17.4515 13.0167 17.4515 13.1362H17.4505Z" fill="#18181B"/>
</svg>
