<svg width="20" height="22" viewBox="0 0 20 22" fill="none" xmlns="http://www.w3.org/2000/svg">
<path d="M10.166 0L19.666 5.5V16.5L10.166 22L0.666016 16.5V5.5L10.166 0ZM10.166 14C10.9617 14 11.7247 13.6839 12.2873 13.1213C12.8499 12.5587 13.166 11.7956 13.166 11C13.166 10.2044 12.8499 9.4413 12.2873 8.8787C11.7247 8.3161 10.9617 8 10.166 8C9.3704 8 8.6073 8.3161 8.0447 8.8787C7.4821 9.4413 7.166 10.2044 7.166 11C7.166 11.7956 7.4821 12.5587 8.0447 13.1213C8.6073 13.6839 9.3704 14 10.166 14Z" fill="#18181B"/>
</svg>
