<svg width="23" height="22" viewBox="0 0 23 22" fill="none" xmlns="http://www.w3.org/2000/svg">
<path d="M11.3167 0.93335L15.3868 6.88824L22.3087 8.91941L17.9025 14.6306L18.1095 21.8404L11.3167 19.4153L4.52397 21.8404L4.73104 14.6306L0.324829 8.91941L7.24667 6.88824L11.3167 0.93335ZM9.39054 12.0091H7.46433C7.46433 13.0145 7.85728 13.9796 8.55842 14.699C9.26052 15.4184 10.2159 15.8355 11.2204 15.8605C12.225 15.8855 13.1996 15.5167 13.9364 14.8339C14.6732 14.1501 15.1143 13.2052 15.1643 12.2017L15.1692 12.0091H13.243C13.2449 12.5089 13.0532 12.9905 12.7075 13.3507C12.3608 13.7118 11.8888 13.9237 11.389 13.943C10.8891 13.9613 10.4018 13.785 10.03 13.4518C9.65828 13.1176 9.43099 12.6524 9.39535 12.1535L9.39054 12.0091Z" fill="#18181B"/>
</svg>
