<svg width="17" height="18" viewBox="0 0 17 18" fill="none" xmlns="http://www.w3.org/2000/svg">
<path d="M12.1868 7.8221L11.4797 7.11499L7.83323 10.7614L6.18678 9.11499L5.47968 9.8221L7.83323 12.1756L12.1868 7.8221Z" fill="black"/>
<path fill-rule="evenodd" clip-rule="evenodd" d="M13.141 3.29861L13.5382 5.26943L15.4325 5.94305C15.7869 6.0691 15.9669 6.46328 15.8301 6.81371L15.0987 8.6864L16.3281 10.2772C16.5581 10.5749 16.4964 11.0038 16.1918 11.2246L14.5641 12.4046L14.7383 14.4075C14.7709 14.7823 14.4871 15.1098 14.1115 15.1309L12.1042 15.2435L11.1678 17.0226C10.9926 17.3555 10.5768 17.4776 10.2494 17.2923L8.4999 16.3018L6.75035 17.2923C6.42297 17.4776 6.00717 17.3555 5.83196 17.0226L4.89563 15.2435L2.88833 15.1309C2.51273 15.1098 2.22894 14.7823 2.26153 14.4075L2.43568 12.4046L0.807953 11.2246C0.503369 11.0038 0.441697 10.5749 0.671735 10.2772L1.90109 8.6864L1.16971 6.81371C1.03285 6.46328 1.21287 6.0691 1.56733 5.94305L3.46157 5.26943L3.85875 3.29861C3.93307 2.92982 4.29763 2.69554 4.66396 2.78113L6.62168 3.23855L8.02132 1.79532C8.28322 1.52526 8.71657 1.52526 8.97847 1.79532L10.3781 3.23855L12.3358 2.78113C12.7022 2.69554 13.0667 2.92982 13.141 3.29861ZM10.0544 4.34113L12.2287 3.8331L12.6698 6.02195L14.7736 6.77008L13.9613 8.84994L15.3266 10.6167L13.5188 11.9272L13.7122 14.1517L11.4829 14.2768L10.443 16.2527L8.4999 15.1527L6.55681 16.2527L5.51689 14.2768L3.28755 14.1517L3.48096 11.9272L1.67317 10.6167L3.03852 8.84994L2.22623 6.77008L4.33002 6.02195L4.77114 3.8331L6.94543 4.34113L8.4999 2.73824L10.0544 4.34113Z" fill="black"/>
</svg>
