<svg width="1140" height="309" viewBox="0 0 1140 309" fill="none" xmlns="http://www.w3.org/2000/svg">
<g clip-path="url(#clip0_813_4894)">
<rect width="1140" height="309" rx="16" fill="#18181B"/>
<g clip-path="url(#clip1_813_4894)">
<path d="M1232.36 -0.000106812C1232.36 51.0109 1191.01 92.3635 1140 92.3635C1088.99 92.3635 1047.64 51.0109 1047.64 -0.000106812C1047.64 -51.0112 1088.99 -92.3638 1140 -92.3638C1191.01 -92.3638 1232.36 -51.0112 1232.36 -0.000106812ZM1056.87 -0.000106812C1056.87 45.9098 1094.09 83.1271 1140 83.1271C1185.91 83.1271 1223.13 45.9098 1223.13 -0.000106812C1223.13 -45.9101 1185.91 -83.1274 1140 -83.1274C1094.09 -83.1274 1056.87 -45.9101 1056.87 -0.000106812Z" fill="#B1F6FB"/>
<path d="M1267 0C1267 70.1402 1210.14 127 1140 127C1069.86 127 1013 70.1402 1013 0C1013 -70.1402 1069.86 -127 1140 -127C1210.14 -127 1267 -70.1402 1267 0ZM1021.89 0C1021.89 65.2304 1074.77 118.11 1140 118.11C1205.23 118.11 1258.11 65.2304 1258.11 0C1258.11 -65.2304 1205.23 -118.11 1140 -118.11C1074.77 -118.11 1021.89 -65.2304 1021.89 0Z" fill="#BCB8FF"/>
<path d="M1197.73 -0.000301361C1197.73 31.8816 1171.88 57.727 1140 57.727C1108.12 57.727 1082.27 31.8816 1082.27 -0.000301361C1082.27 -31.8822 1108.12 -57.7275 1140 -57.7275C1171.88 -57.7275 1197.73 -31.8822 1197.73 -0.000301361ZM1091.51 -0.000301361C1091.51 26.7805 1113.22 48.4906 1140 48.4906C1166.78 48.4906 1188.49 26.7805 1188.49 -0.000301361C1188.49 -26.7811 1166.78 -48.4912 1140 -48.4912C1113.22 -48.4912 1091.51 -26.7811 1091.51 -0.000301361Z" fill="#C2FF66"/>
</g>
<g clip-path="url(#clip2_813_4894)">
<path d="M44.08 24C45.1846 24 46.08 23.1046 46.08 22C46.08 20.8954 45.1846 20 44.08 20C42.9754 20 42.08 20.8954 42.08 22C42.08 23.1046 42.9754 24 44.08 24Z" fill="#4D4D56"/>
<path d="M44.08 52C45.1846 52 46.08 51.1046 46.08 50C46.08 48.8954 45.1846 48 44.08 48C42.9754 48 42.08 48.8954 42.08 50C42.08 51.1046 42.9754 52 44.08 52Z" fill="#4D4D56"/>
<path d="M44.08 80C45.1846 80 46.08 79.1046 46.08 78C46.08 76.8954 45.1846 76 44.08 76C42.9754 76 42.08 76.8954 42.08 78C42.08 79.1046 42.9754 80 44.08 80Z" fill="#4D4D56"/>
<path d="M72.08 24C73.1846 24 74.08 23.1046 74.08 22C74.08 20.8954 73.1846 20 72.08 20C70.9754 20 70.08 20.8954 70.08 22C70.08 23.1046 70.9754 24 72.08 24Z" fill="#4D4D56"/>
<path d="M72.08 52C73.1846 52 74.08 51.1046 74.08 50C74.08 48.8954 73.1846 48 72.08 48C70.9754 48 70.08 48.8954 70.08 50C70.08 51.1046 70.9754 52 72.08 52Z" fill="#4D4D56"/>
<path d="M72.08 80C73.1846 80 74.08 79.1046 74.08 78C74.08 76.8954 73.1846 76 72.08 76C70.9754 76 70.08 76.8954 70.08 78C70.08 79.1046 70.9754 80 72.08 80Z" fill="#4D4D56"/>
<path d="M100.08 24C101.185 24 102.08 23.1046 102.08 22C102.08 20.8954 101.185 20 100.08 20C98.9754 20 98.08 20.8954 98.08 22C98.08 23.1046 98.9754 24 100.08 24Z" fill="#4D4D56"/>
<path d="M100.08 52C101.185 52 102.08 51.1046 102.08 50C102.08 48.8954 101.185 48 100.08 48C98.9754 48 98.08 48.8954 98.08 50C98.08 51.1046 98.9754 52 100.08 52Z" fill="#4D4D56"/>
<path d="M100.08 80C101.185 80 102.08 79.1046 102.08 78C102.08 76.8954 101.185 76 100.08 76C98.9754 76 98.08 76.8954 98.08 78C98.08 79.1046 98.9754 80 100.08 80Z" fill="#4D4D56"/>
<path d="M128.08 24C129.185 24 130.08 23.1046 130.08 22C130.08 20.8954 129.185 20 128.08 20C126.975 20 126.08 20.8954 126.08 22C126.08 23.1046 126.975 24 128.08 24Z" fill="#4D4D56"/>
<path d="M128.08 52C129.185 52 130.08 51.1046 130.08 50C130.08 48.8954 129.185 48 128.08 48C126.975 48 126.08 48.8954 126.08 50C126.08 51.1046 126.975 52 128.08 52Z" fill="#4D4D56"/>
<path d="M128.08 80C129.185 80 130.08 79.1046 130.08 78C130.08 76.8954 129.185 76 128.08 76C126.975 76 126.08 76.8954 126.08 78C126.08 79.1046 126.975 80 128.08 80Z" fill="#4D4D56"/>
</g>
</g>
<defs>
<clipPath id="clip0_813_4894">
<rect width="1140" height="309" rx="16" fill="white"/>
</clipPath>
<clipPath id="clip1_813_4894">
<rect width="127" height="127" fill="white" transform="translate(1013)"/>
</clipPath>
<clipPath id="clip2_813_4894">
<rect width="88" height="80" fill="white" transform="translate(42.08)"/>
</clipPath>
</defs>
</svg>
