<svg width="18" height="19" viewBox="0 0 18 19" fill="none" xmlns="http://www.w3.org/2000/svg">
<path d="M9 18.051C6.5 18.051 4.375 17.176 2.625 15.426C0.875 13.676 0 11.551 0 9.05103C0 6.55103 0.875 4.42603 2.625 2.67603C4.375 0.926025 6.5 0.0510254 9 0.0510254C9.23333 0.0510254 9.4625 0.0593587 9.6875 0.0760254C9.9125 0.0926921 10.1333 0.117692 10.35 0.151025C9.66667 0.634359 9.12083 1.26353 8.7125 2.03853C8.30417 2.81353 8.1 3.65103 8.1 4.55103C8.1 6.05103 8.625 7.32603 9.675 8.37603C10.725 9.42603 12 9.95103 13.5 9.95103C14.4167 9.95103 15.2583 9.74686 16.025 9.33853C16.7917 8.93019 17.4167 8.38436 17.9 7.70103C17.9333 7.91769 17.9583 8.13853 17.975 8.36353C17.9917 8.58853 18 8.81769 18 9.05103C18 11.551 17.125 13.676 15.375 15.426C13.625 17.176 11.5 18.051 9 18.051ZM9 16.051C10.4667 16.051 11.7833 15.6469 12.95 14.8385C14.1167 14.0302 14.9667 12.976 15.5 11.676C15.1667 11.7594 14.8333 11.826 14.5 11.876C14.1667 11.926 13.8333 11.951 13.5 11.951C11.45 11.951 9.70417 11.2302 8.2625 9.78853C6.82083 8.34686 6.1 6.60103 6.1 4.55103C6.1 4.21769 6.125 3.88436 6.175 3.55103C6.225 3.21769 6.29167 2.88436 6.375 2.55103C5.075 3.08436 4.02083 3.93436 3.2125 5.10103C2.40417 6.26769 2 7.58436 2 9.05103C2 10.9844 2.68333 12.6344 4.05 14.001C5.41667 15.3677 7.06667 16.051 9 16.051Z" fill="black"/>
</svg>
