<svg width="22" height="23" viewBox="0 0 22 23" fill="none" xmlns="http://www.w3.org/2000/svg">
<path d="M11 14.051C11.8333 14.051 12.5417 13.7594 13.125 13.176C13.7083 12.5927 14 11.8844 14 11.051C14 10.2177 13.7083 9.50936 13.125 8.92603C12.5417 8.34269 11.8333 8.05103 11 8.05103C10.1667 8.05103 9.45833 8.34269 8.875 8.92603C8.29167 9.50936 8 10.2177 8 11.051C8 11.8844 8.29167 12.5927 8.875 13.176C9.45833 13.7594 10.1667 14.051 11 14.051ZM11 16.051C9.61667 16.051 8.4375 15.5635 7.4625 14.5885C6.4875 13.6135 6 12.4344 6 11.051C6 9.66769 6.4875 8.48853 7.4625 7.51353C8.4375 6.53853 9.61667 6.05103 11 6.05103C12.3833 6.05103 13.5625 6.53853 14.5375 7.51353C15.5125 8.48853 16 9.66769 16 11.051C16 12.4344 15.5125 13.6135 14.5375 14.5885C13.5625 15.5635 12.3833 16.051 11 16.051ZM4 12.051H0V10.051H4V12.051ZM22 12.051H18V10.051H22V12.051ZM10 4.05103V0.0510254H12V4.05103H10ZM10 22.051V18.051H12V22.051H10ZM5.4 6.80103L2.875 4.37603L4.3 2.90103L6.7 5.40103L5.4 6.80103ZM17.7 19.201L15.275 16.676L16.6 15.301L19.125 17.726L17.7 19.201ZM15.25 5.45103L17.675 2.92603L19.15 4.35103L16.65 6.75103L15.25 5.45103ZM2.85 17.751L5.375 15.326L6.75 16.651L4.325 19.176L2.85 17.751Z" fill="white"/>
</svg>
